<svg xmlns="http://www.w3.org/2000/svg" xmlns:xlink="http://www.w3.org/1999/xlink" viewBox="0 0 595.28 841.89">
  <defs>
    <style>
      .cls-1 {
        fill: #1d1d1b;
      }

      .cls-2 {
        fill: none;
        stroke: #1d1d1b;
        stroke-linecap: round;
        stroke-linejoin: round;
      }
    </style>
  </defs>
  <g id="Calque_1" data-name="Calque 1">
    <image width="287" height="272" transform="translate(180 198) scale(0.92 0.99)" xlink:href="../logo.JPG"/>
  </g>
  <g id="LogoSVG1">
    <path class="cls-1" d="M329,259.5a1.5,1.5,0,0,0,0-3,1.5,1.5,0,0,0,0,3Z"/>
    <path class="cls-1" d="M384,266.5a1.5,1.5,0,0,0,0-3,1.5,1.5,0,0,0,0,3Z"/>
    <path class="cls-1" d="M404,293.5a1.5,1.5,0,0,0,0-3,1.5,1.5,0,0,0,0,3Z"/>
    <path class="cls-1" d="M400,359.5a1.5,1.5,0,0,0,0-3,1.5,1.5,0,0,0,0,3Z"/>
    <path class="cls-1" d="M380,379.5a1.5,1.5,0,0,0,0-3,1.5,1.5,0,0,0,0,3Z"/>
    <path class="cls-1" d="M364,406.5a1.5,1.5,0,0,0,0-3,1.5,1.5,0,0,0,0,3Z"/>
    <path class="cls-1" d="M279,409.5a1.5,1.5,0,0,0,0-3,1.5,1.5,0,0,0,0,3Z"/>
    <path class="cls-1" d="M253,402.5a1.5,1.5,0,0,0,0-3,1.5,1.5,0,0,0,0,3Z"/>
    <path class="cls-1" d="M215,347.5a1.5,1.5,0,0,0,0-3,1.5,1.5,0,0,0,0,3Z"/>
    <path class="cls-1" d="M224,315.5a1.5,1.5,0,0,0,0-3,1.5,1.5,0,0,0,0,3Z"/>
    <path class="cls-1" d="M260,354.5a1.5,1.5,0,0,0,0-3,1.5,1.5,0,0,0,0,3Z"/>
    <path class="cls-1" d="M220,284.5a1.5,1.5,0,0,0,0-3,1.5,1.5,0,0,0,0,3Z"/>
    <path class="cls-1" d="M238,259.5a1.5,1.5,0,0,0,0-3,1.5,1.5,0,0,0,0,3Z"/>
    <path class="cls-1" d="M259,235.5a1.5,1.5,0,0,0,0-3,1.5,1.5,0,0,0,0,3Z"/>
    <path class="cls-1" d="M313,218.5a1.5,1.5,0,0,0,0-3,1.5,1.5,0,0,0,0,3Z"/>
    <path class="cls-1" d="M371,240.5a1.5,1.5,0,0,0,0-3,1.5,1.5,0,0,0,0,3Z"/>
    <path class="cls-1" d="M263.87,280.89a1.5,1.5,0,0,0,0-3,1.5,1.5,0,0,0,0,3Z"/>
    <path class="cls-1" d="M402.65,325.76a1.5,1.5,0,0,0,0-3,1.5,1.5,0,0,0,0,3Z"/>
    <path class="cls-1" d="M402.65,328.74c6.44,0,6.45-10,0-10s-6.44,10,0,10Z"/>
    <path class="cls-1" d="M367.7,327.7c6.43,0,6.44-10,0-10s-6.45,10,0,10Z"/>
    <path class="cls-1" d="M309.78,323c6.44,0,6.45-10,0-10s-6.44,10,0,10Z"/>
    <path class="cls-1" d="M334.83,420c6.43,0,6.44-10,0-10s-6.45,10,0,10Z"/>
    <path class="cls-1" d="M342.13,229.67c4.5,0,4.51-7,0-7s-4.51,7,0,7Z"/>
    <path class="cls-1" d="M285.26,230.72c4.51,0,4.51-7,0-7s-4.51,7,0,7Z"/>
    <path class="cls-1" d="M263.87,282.89c4.5,0,4.51-7,0-7s-4.51,7,0,7Z"/>
    <path class="cls-1" d="M324.91,382.54c4.51,0,4.51-7,0-7s-4.51,7,0,7Z"/>
    <path class="cls-1" d="M234.65,377.33c4.51,0,4.51-7,0-7s-4.51,7,0,7Z"/>
    <line class="cls-2" x1="238" y1="258" x2="263.87" y2="279.39"/>
    <line class="cls-2" x1="220" y1="283" x2="238" y2="258"/>
    <line class="cls-2" x1="224" y1="314" x2="220" y2="285.13"/>
    <line class="cls-2" x1="263.87" y1="279.39" x2="224" y2="314"/>
    <line class="cls-2" x1="238" y1="258" x2="224" y2="314"/>
    <line class="cls-2" x1="259" y1="234" x2="238" y2="258"/>
    <line class="cls-2" x1="285.26" y1="227.22" x2="259" y2="234"/>
    <line class="cls-2" x1="313" y1="217" x2="287.87" y2="227.22"/>
    <line class="cls-2" x1="342.13" y1="226.17" x2="313" y2="217"/>
    <line class="cls-2" x1="371" y1="239" x2="342.13" y2="226.17"/>
    <line class="cls-2" x1="384" y1="265" x2="371" y2="239"/>
    <line class="cls-2" x1="404" y1="292" x2="384" y2="265"/>
    <line class="cls-2" x1="402.65" y1="323.74" x2="404" y2="292"/>
    <line class="cls-2" x1="400" y1="358" x2="402.65" y2="324.26"/>
    <line class="cls-2" x1="367.7" y1="322.7" x2="402.65" y2="324.26"/>
    <line class="cls-2" x1="400" y1="358" x2="380" y2="378"/>
    <line class="cls-2" x1="364" y1="405" x2="380" y2="378"/>
    <line class="cls-2" x1="334.83" y1="415.04" x2="364" y2="405"/>
    <line class="cls-2" x1="279" y1="408" x2="334.83" y2="415.04"/>
    <line class="cls-2" x1="253" y1="401" x2="279" y2="408"/>
    <line class="cls-2" x1="234.65" y1="373.83" x2="253" y2="401"/>
    <line class="cls-2" x1="215" y1="346" x2="234.65" y2="373.83"/>
    <line class="cls-2" x1="224" y1="314" x2="215" y2="346"/>
    <line class="cls-2" x1="238" y1="258" x2="285.26" y2="227.22"/>
    <line class="cls-2" x1="342.13" y1="226.17" x2="285.26" y2="227.22"/>
    <line class="cls-2" x1="384" y1="265" x2="342.13" y2="226.17"/>
    <line class="cls-2" x1="402.65" y1="324.26" x2="384" y2="265"/>
    <line class="cls-2" x1="380" y1="378" x2="402.65" y2="324.26"/>
    <line class="cls-2" x1="334.83" y1="415.04" x2="380" y2="378"/>
    <line class="cls-2" x1="279" y1="408" x2="324.91" y2="379.04"/>
    <line class="cls-2" x1="306.91" y1="423.39" x2="279" y2="408"/>
    <line class="cls-2" x1="334.83" y1="415.04" x2="306.91" y2="423.39"/>
    <line class="cls-2" x1="279" y1="408" x2="234.65" y2="373.83"/>
    <line class="cls-2" x1="224" y1="314" x2="234.65" y2="373.83"/>
    <line class="cls-2" x1="220" y1="283" x2="215" y2="346"/>
    <line class="cls-2" x1="263.87" y1="279.39" x2="285.26" y2="227.22"/>
    <line class="cls-2" x1="329" y1="258" x2="342.13" y2="226.17"/>
    <line class="cls-2" x1="287.87" y1="227.22" x2="329" y2="258"/>
    <line class="cls-2" x1="263.87" y1="279.39" x2="329" y2="258"/>
    <line class="cls-2" x1="384" y1="265" x2="329" y2="258"/>
    <line class="cls-2" x1="367.7" y1="322.7" x2="384" y2="265"/>
    <line class="cls-2" x1="380" y1="378" x2="367.7" y2="322.7"/>
    <line class="cls-2" x1="324.91" y1="379.04" x2="334.83" y2="415.04"/>
    <line class="cls-2" x1="380" y1="378" x2="324.91" y2="379.04"/>
    <line class="cls-2" x1="309.78" y1="318" x2="324.91" y2="379.04"/>
    <line class="cls-2" x1="367.7" y1="322.7" x2="329" y2="258"/>
    <line class="cls-2" x1="309.78" y1="318" x2="367.7" y2="322.7"/>
    <line class="cls-2" x1="324.91" y1="379.04" x2="367.7" y2="322.7"/>
    <line class="cls-2" x1="260" y1="353" x2="324.91" y2="379.04"/>
    <line class="cls-2" x1="224" y1="314" x2="260" y2="353"/>
    <line class="cls-2" x1="263.87" y1="279.39" x2="260" y2="353"/>
    <line class="cls-2" x1="309.78" y1="318" x2="329" y2="258"/>
    <line class="cls-2" x1="234.65" y1="373.83" x2="260" y2="353"/>
    <line class="cls-2" x1="279" y1="408" x2="260" y2="353"/>
    <line class="cls-2" x1="309.78" y1="318" x2="260" y2="353"/>
    <line class="cls-2" x1="263.87" y1="279.39" x2="309.78" y2="318"/>
    <line class="cls-2" x1="364" y1="405" x2="400" y2="358"/>
  </g>
</svg>
